<svg id="visual" viewBox="0 0 900 600" width="900" height="600" xmlns="http://www.w3.org/2000/svg" xmlns:xlink="http://www.w3.org/1999/xlink" version="1.1"><path d="M0 43L30 48C60 53 120 63 180 58C240 53 300 33 360 36C420 39 480 65 540 74C600 83 660 75 720 63C780 51 840 35 870 27L900 19L900 0L870 0C840 0 780 0 720 0C660 0 600 0 540 0C480 0 420 0 360 0C300 0 240 0 180 0C120 0 60 0 30 0L0 0Z" fill="#0a5c58"></path><path d="M0 61L30 84C60 107 120 153 180 149C240 145 300 91 360 90C420 89 480 141 540 169C600 197 660 201 720 172C780 143 840 81 870 50L900 19L900 17L870 25C840 33 780 49 720 61C660 73 600 81 540 72C480 63 420 37 360 34C300 31 240 51 180 56C120 61 60 51 30 46L0 41Z" fill="#3c7267"></path><path d="M0 79L30 100C60 121 120 163 180 166C240 169 300 133 360 134C420 135 480 173 540 198C600 223 660 235 720 220C780 205 840 163 870 142L900 121L900 17L870 48C840 79 780 141 720 170C660 199 600 195 540 167C480 139 420 87 360 88C300 89 240 143 180 147C120 151 60 105 30 82L0 59Z" fill="#608778"></path><path d="M0 223L30 227C60 231 120 239 180 253C240 267 300 287 360 303C420 319 480 331 540 348C600 365 660 387 720 352C780 317 840 225 870 179L900 133L900 119L870 140C840 161 780 203 720 218C660 233 600 221 540 196C480 171 420 133 360 132C300 131 240 167 180 164C120 161 60 119 30 98L0 77Z" fill="#819e8c"></path><path d="M0 241L30 243C60 245 120 249 180 265C240 281 300 309 360 334C420 359 480 381 540 394C600 407 660 411 720 376C780 341 840 267 870 230L900 193L900 131L870 177C840 223 780 315 720 350C660 385 600 363 540 346C480 329 420 317 360 301C300 285 240 265 180 251C120 237 60 229 30 225L0 221Z" fill="#a2b5a3"></path><path d="M0 253L30 266C60 279 120 305 180 326C240 347 300 363 360 376C420 389 480 399 540 406C600 413 660 417 720 392C780 367 840 313 870 286L900 259L900 191L870 228C840 265 780 339 720 374C660 409 600 405 540 392C480 379 420 357 360 332C300 307 240 279 180 263C120 247 60 243 30 241L0 239Z" fill="#c2ccbc"></path><path d="M0 355L30 371C60 387 120 419 180 432C240 445 300 439 360 460C420 481 480 529 540 556C600 583 660 589 720 576C780 563 840 531 870 515L900 499L900 257L870 284C840 311 780 365 720 390C660 415 600 411 540 404C480 397 420 387 360 374C300 361 240 345 180 324C120 303 60 277 30 264L0 251Z" fill="#e1e5d8"></path><path d="M0 601L30 601C60 601 120 601 180 601C240 601 300 601 360 601C420 601 480 601 540 601C600 601 660 601 720 601C780 601 840 601 870 601L900 601L900 497L870 513C840 529 780 561 720 574C660 587 600 581 540 554C480 527 420 479 360 458C300 437 240 443 180 430C120 417 60 385 30 369L0 353Z" fill="#fefef6"></path></svg>